HIERARCHY
ROOT SpineBase
{
  OFFSET 0.000000 0.000000 0.000000
  CHANNELS 6 Xposition Yposition Zposition Zrotation Xrotation Yrotation
  JOINT SpineMid
  {
    OFFSET 0.000000 32.358379 -0.000000
    CHANNELS 3 Zrotation Xrotation Yrotation
    JOINT SpineShoulder
    {
      OFFSET 0.049370 24.017697 -0.857518
      CHANNELS 3 Zrotation Xrotation Yrotation
      JOINT Neck
      {
        OFFSET 0.120567 7.956760 -0.596374
        CHANNELS 3 Zrotation Xrotation Yrotation
        JOINT Head
        {
          OFFSET 3.859049 11.771117 6.210309
          CHANNELS 3 Zrotation Xrotation Yrotation
          End Site
          {
            OFFSET 0 0 0
          }
        }
      }
      JOINT ShoulderLeft
      {
        OFFSET -2.815567 -3.757431 -15.384947
        CHANNELS 3 Zrotation Xrotation Yrotation
        JOINT ElbowLeft
        {
          OFFSET 4.335092 -28.798953 -10.103613
          CHANNELS 3 Zrotation Xrotation Yrotation
          JOINT WristLeft
          {
            OFFSET 7.737194 -20.807229 -3.108785
            CHANNELS 3 Zrotation Xrotation Yrotation
            JOINT HandLeft
            {
              OFFSET 1.320436 -7.623313 -0.712374
              CHANNELS 3 Zrotation Xrotation Yrotation
              JOINT HandTipLeft
              {
                OFFSET 2.096846 -6.631265 0.555678
                CHANNELS 3 Zrotation Xrotation Yrotation
                End Site
                {
                  OFFSET 0 0 0
                }
              }
              JOINT ThumbLeft
              {
                OFFSET -1.753323 -1.550416 -2.938005
                CHANNELS 3 Zrotation Xrotation Yrotation
                End Site
                {
                  OFFSET 0 0 0
                }
              }
            }
          }
        }
      }
      JOINT ShoulderRight
      {
        OFFSET 5.452339 -5.147473 13.764963
        CHANNELS 3 Zrotation Xrotation Yrotation
        JOINT ElbowRight
        {
          OFFSET 1.143331 -27.516046 10.400223
          CHANNELS 3 Zrotation Xrotation Yrotation
          JOINT WristRight
          {
            OFFSET 1.370709 -22.971323 -1.973645
            CHANNELS 3 Zrotation Xrotation Yrotation
            JOINT HandRight
            {
              OFFSET 0.319039 -7.458685 0.072128
              CHANNELS 3 Zrotation Xrotation Yrotation
              JOINT HandTipRight
              {
                OFFSET 0.698169 0.039494 -1.126156
                CHANNELS 3 Zrotation Xrotation Yrotation
                End Site
                {
                  OFFSET 0 0 0
                }
              }
              JOINT ThumbRight
              {
                OFFSET 0.014821 1.390831 -1.933457
                CHANNELS 3 Zrotation Xrotation Yrotation
                End Site
                {
                  OFFSET 0 0 0
                }
              }
            }
          }
        }
      }
    }
  }
  JOINT HipLeft
  {
    OFFSET -1.064117 1.972623 -10.024099
    CHANNELS 3 Zrotation Xrotation Yrotation
    JOINT KneeLeft
    {
      OFFSET 2.196171 -36.599723 -1.363643
      CHANNELS 3 Zrotation Xrotation Yrotation
      JOINT AnkleLeft
      {
        OFFSET -3.297681 -35.029964 4.100278
        CHANNELS 3 Zrotation Xrotation Yrotation
        JOINT FootLeft
        {
          OFFSET 4.710936 -7.665850 -2.050137
          CHANNELS 3 Zrotation Xrotation Yrotation
          End Site
          {
            OFFSET 0 0 0
          }
        }
      }
    }
  }
  JOINT HipRight
  {
    OFFSET 3.313464 0.349310 3.500671
    CHANNELS 3 Zrotation Xrotation Yrotation
    JOINT KneeRight
    {
      OFFSET 7.555841 -37.651047 7.790365
      CHANNELS 3 Zrotation Xrotation Yrotation
      JOINT AnkleRight
      {
        OFFSET -6.503788 -34.489893 8.903849
        CHANNELS 3 Zrotation Xrotation Yrotation
        JOINT FootRight
        {
          OFFSET 12.533837 -1.960102 -6.883995
          CHANNELS 3 Zrotation Xrotation Yrotation
          End Site
          {
            OFFSET 0 0 0
          }
        }
      }
    }
  }
}
MOTION
Frames: 7
Frame Time: 0.033333
-112.344997 70.595670 284.480351 -29.905106 -20.105491 -24.488683 -1.149770 0.777398 18.480536 2.209387 -0.022676 -1.131688 -7.976117 21.151127 24.967968 0.000000 0.000000 0.000000 37.820652 15.885947 -10.280121 1.868715 -19.702851 -4.219713 15.192183 -11.159405 1.355199 10.188796 42.432052 -3.010500 0.000000 0.000000 0.000000 0.000000 0.000000 0.000000 25.648804 58.677897 -1.405077 42.692444 -6.095784 14.811475 8.018272 1.007761 5.281538 -54.101252 -22.422663 -12.177914 0.000000 0.000000 0.000000 0.000000 0.000000 0.000000 125.281532 62.166938 -71.423937 -50.006094 -46.722796 -18.331935 -49.564413 -23.259288 -18.273314 0.000000 0.000000 0.000000 123.427495 35.756688 -28.488560 -30.586069 37.267323 -48.020511 -3.872138 -45.700232 14.003248 0.000000 0.000000 0.000000
-112.490302 70.209154 284.611352 -29.365537 -20.078129 -22.659410 -0.967267 0.545616 16.684819 2.037940 0.138902 -1.055210 -7.934009 19.524823 24.948026 0.000000 0.000000 0.000000 38.021144 15.763969 -10.674370 2.954079 -21.044762 -4.348358 15.080703 -12.100338 1.840879 10.920774 42.101895 -4.220396 0.000000 0.000000 0.000000 0.000000 0.000000 0.000000 29.541325 59.161914 -3.168492 41.905359 -7.729955 14.250085 8.708884 0.915971 5.630767 -58.394166 -23.326721 -14.430881 0.000000 0.000000 0.000000 0.000000 0.000000 0.000000 132.259118 62.235736 -79.344061 -52.281915 -49.674358 -21.985785 -43.938493 -26.017350 -20.693002 0.000000 0.000000 0.000000 124.250916 33.305927 -27.367358 -27.026451 35.459685 -48.008277 -5.842422 -43.848203 10.745438 0.000000 0.000000 0.000000
-112.820184 70.267882 284.772898 -29.293984 -20.328571 -21.247249 -0.657923 0.675603 15.180617 1.803945 0.266421 -0.986633 -7.583846 18.182834 24.832477 0.000000 0.000000 0.000000 38.860686 13.943575 -11.540170 3.059391 -19.115092 -3.779466 23.355283 -9.011756 -0.379569 1.403432 42.465747 -0.262970 0.000000 0.000000 0.000000 0.000000 0.000000 0.000000 32.627672 59.943136 -4.600607 41.325102 -9.854168 14.300816 16.032632 -0.291916 8.146384 -72.390574 -25.027156 -15.978545 0.000000 0.000000 0.000000 0.000000 0.000000 0.000000 137.371505 62.132851 -85.256205 -55.488600 -51.142201 -26.448360 -23.792187 -16.249628 -8.521485 0.000000 0.000000 0.000000 125.267066 31.628813 -27.126734 -22.890379 34.172927 -49.018338 -12.523060 -45.984665 6.442703 0.000000 0.000000 0.000000
-113.380837 70.516314 285.117096 -29.653383 -20.912383 -20.436181 -0.235616 1.167322 14.143683 1.580066 0.242959 -0.958057 -6.586582 17.048467 24.391685 0.000000 0.000000 0.000000 39.683686 12.174363 -12.390708 3.259167 -16.355069 -3.163027 32.350655 -4.656800 -3.585151 -18.312979 43.609257 8.734414 0.000000 0.000000 0.000000 0.000000 0.000000 0.000000 33.947941 60.825081 -5.354358 43.104931 -10.095368 15.119410 19.581354 -1.728722 10.261644 -80.911538 -24.139890 -20.727109 0.000000 0.000000 0.000000 0.000000 0.000000 0.000000 143.792212 62.575985 -92.828169 -56.556085 -52.427849 -29.895140 -22.928740 -12.274730 -3.642199 0.000000 0.000000 0.000000 126.990912 30.995180 -28.334651 -17.708113 31.514004 -49.460618 -26.269577 -49.445681 -2.060132 0.000000 0.000000 0.000000
-113.761279 70.573997 285.618048 -29.579219 -21.683662 -18.834729 -0.090807 1.494453 12.393320 1.348879 0.108233 -0.948085 -5.224482 16.358346 23.693738 0.000000 0.000000 0.000000 40.325144 12.322420 -13.141458 3.991224 -16.125605 -2.957546 37.194736 -4.698848 -4.892403 -26.732233 46.879512 11.880253 0.000000 0.000000 0.000000 0.000000 0.000000 0.000000 32.741714 61.989984 -5.149007 46.442001 -8.382908 16.401826 20.509338 -4.054694 12.560697 -87.046292 -22.974190 -27.372149 0.000000 0.000000 0.000000 0.000000 0.000000 0.000000 148.368286 63.177533 -99.264685 -55.990112 -53.973197 -32.383300 -9.723389 6.578708 9.000797 0.000000 0.000000 0.000000 128.563441 30.184234 -29.626872 -13.589098 26.682482 -46.829541 -53.424180 -49.083020 -16.585074 0.000000 0.000000 0.000000
-113.875929 70.748014 286.293754 -29.355979 -22.598819 -17.421683 0.018230 1.703361 10.812111 1.109542 -0.032663 -0.931562 -3.778602 16.204708 22.866815 0.000000 0.000000 0.000000 40.509430 12.528307 -13.780335 5.425856 -15.361117 -2.903757 43.050196 -2.905253 -7.183864 -36.863273 44.643541 14.936666 0.000000 0.000000 0.000000 0.000000 0.000000 0.000000 34.586587 63.987949 -6.593507 49.864616 -7.696130 17.889617 19.431420 -15.919017 20.367239 -82.862988 -12.598202 -21.511160 0.000000 0.000000 0.000000 0.000000 0.000000 0.000000 151.545072 64.459555 -104.760468 -52.319067 -53.987135 -32.448174 -5.895668 9.642765 12.057908 0.000000 0.000000 0.000000 130.067708 30.033016 -31.581052 -10.205022 21.009644 -42.197319 -83.665040 -41.820463 -16.714452 0.000000 0.000000 0.000000
-114.013420 71.055213 286.574032 -29.069783 -23.509414 -16.107941 0.099245 1.787516 9.330003 0.994772 -0.128227 -0.916454 -2.596628 16.245062 22.115752 0.000000 0.000000 0.000000 40.242777 13.000960 -14.210740 6.731383 -14.716352 -2.983791 49.677488 0.383715 -10.774757 -40.806930 38.554372 13.895319 0.000000 0.000000 0.000000 0.000000 0.000000 0.000000 42.544339 63.956910 -11.165961 50.239746 -6.068541 15.859665 15.135359 -29.573617 28.193369 -74.367927 0.800798 -16.506667 0.000000 0.000000 0.000000 0.000000 0.000000 0.000000 152.443160 66.274394 -108.034617 -47.050903 -53.332843 -30.659679 -0.429519 17.535270 16.695843 0.000000 0.000000 0.000000 131.151340 30.080872 -33.497439 -7.940440 13.922027 -33.830583 -105.076854 -33.758552 5.971001 0.000000 0.000000 0.000000
